<?xml version="1.0" standalone="no"?>
<svg xmlns="http://www.w3.org/2000/svg" viewBox="0 0 104.2 29" width="104.2" height="29"><path fill="#008ffa" fill-rule="nonzero" d="M0 16.94L0 0.14L6.84 0.14Q9.50 0.14 11.54 1.21Q13.58 2.28 14.71 4.19Q15.84 6.10 15.84 8.54L15.84 8.54Q15.84 10.99 14.71 12.90Q13.58 14.81 11.54 15.88Q9.50 16.94 6.84 16.94L6.84 16.94L0 16.94ZM1.78 15.41L6.74 15.41Q8.95 15.41 10.61 14.53Q12.26 13.66 13.18 12.11Q14.09 10.56 14.09 8.54L14.09 8.54Q14.09 6.53 13.18 4.98Q12.26 3.43 10.61 2.56Q8.95 1.68 6.74 1.68L6.74 1.68L1.78 1.68L1.78 15.41ZM23.78 7.34Q26.42 7.49 27.80 8.77Q29.18 10.06 29.18 12.12L29.18 12.12Q29.18 13.56 28.49 14.68Q27.79 15.79 26.42 16.44Q25.06 17.09 23.09 17.09L23.09 17.09Q21.26 17.09 19.64 16.50Q18.02 15.91 17.04 14.93L17.04 14.93L17.88 13.56Q18.72 14.42 20.11 14.96Q21.50 15.50 23.09 15.50L23.09 15.50Q25.15 15.50 26.28 14.60Q27.41 13.70 27.41 12.12L27.41 12.12Q27.41 10.56 26.28 9.67Q25.15 8.78 22.87 8.78L22.87 8.78L21.67 8.78L21.67 7.51L26.33 1.68L17.74 1.68L17.74 0.14L28.54 0.14L28.54 1.37L23.78 7.34ZM51.07 0Q53.95 0 55.56 1.66Q57.17 3.31 57.17 6.46L57.17 6.46L57.17 16.94L55.42 16.94L55.42 6.50Q55.42 4.06 54.18 2.82Q52.94 1.58 50.81 1.58L50.81 1.58Q48.55 1.58 47.28 2.89Q46.01 4.20 46.01 6.89L46.01 6.89L46.01 16.94L44.26 16.94L44.26 6.50Q44.26 4.06 43.06 2.82Q41.86 1.58 39.72 1.58L39.72 1.58Q37.44 1.58 36.16 2.89Q34.87 4.20 34.87 6.89L34.87 6.89L34.87 16.94L33.10 16.94L33.10 0.14L34.80 0.14L34.80 2.95Q35.50 1.51 36.86 0.76Q38.23 0 40.10 0L40.10 0Q42.07 0 43.48 0.83Q44.88 1.66 45.50 3.14L45.50 3.14Q46.22 1.61 47.68 0.80Q49.13 0 51.07 0L51.07 0Z" transform="translate(0, 5.957)"></path><line x1="66.168" y1="2%" x2="66.168" y2="98%" stroke="#008ffa" stroke-linecap="round"></line><g fill="#ffa554" color="#ffa554" transform="translate(75.168 0) scale(0.6041667)"><svg width="48.0" height="48.0" x="0.0" y="0.0" viewBox="0 0 48 48"><path fill="currentColor" fill-rule="nonzero" d="M.3.72h46.93v46.93H.3V.72zm44.17 7.36v-4.6h-9.8c-6.88 6.64-7.34 11.5-1.82 15.44 5.23 3.74 9.19 7.73 11.62 11.45v-6.8c-7.34-4.71-10.88-9.09-10.34-13.35.31-2.51 1.86-3.97 4.3-3.97 1.6 0 3.59.61 6.04 1.83zm0 3.12c-2.68-1.47-4.72-2.19-6.04-2.19-1.01 0-1.42.38-1.56 1.55-.33 2.65 2.13 5.94 7.6 9.7V11.2zM30.84 3.48H18.89c.36.92.64 1.7.96 2.61 1.14 3.28 1.94 6.34 2.31 9.25.15 1.15.22 2.26.22 3.32 0 2.75-.41 5.18-1.42 9.46-1.09 4.64-1.34 5.96-1.34 7.79 0 2.79.55 5.78 1.66 8.97h4.13c-2.32-9.24-1.1-15.1 4.05-17.16 5.7-2.28 9.76 3.78 12.67 17.16h2.33v-6.9c0-4.18-4.76-10.77-13.23-16.82-6.51-4.65-6.53-10.76-.39-17.68zM28.26 44.9h3.59c-.16-1.19-.32-2.26-.48-3.22-.22-1.35-.45-2.46-.67-3.34-.18-.74.26-1.49 1-1.67.74-.18 1.49.26 1.67 1 .24.96.48 2.14.71 3.56.18 1.09.36 2.31.54 3.68h4.67c-2.53-11.33-5.62-15.87-8.82-14.59-3.57 1.42-4.45 6.14-2.21 14.58zm-9.89 0c-1-3.14-1.51-6.13-1.51-8.97 0-2.14.27-3.53 1.42-8.43.96-4.08 1.34-6.35 1.34-8.83 0-.94-.07-1.93-.2-2.97-.34-2.7-1.1-5.58-2.18-8.69-.41-1.19-.77-2.13-1.32-3.52H9.46c.3 1.1.96 2.36 2.08 4.14 1.91 3.05 2.14 3.44 2.49 4.67.57 2-.06 3.7-2.01 4.81-3.17 1.81-6.17.5-8.97-3.52v10.93c4.01-3.28 7.52-4.11 10.43-2.17 1.72 1.14 2.16 2.75 1.45 4.53-.24.62-.61 1.24-1.15 2.03-.28.41-1.33 1.86-1.43 2-1.65 2.32-2.4 3.95-2.4 5.71 0 3.53.7 6.28 2.07 8.28h6.35zm-9.52 0c-1.11-2.26-1.65-5.02-1.65-8.28 0-2.48.95-4.55 2.91-7.3.12-.17 1.15-1.59 1.41-1.96.43-.63.7-1.1.86-1.48.24-.61.18-.82-.41-1.22-1.99-1.32-4.91-.29-8.9 3.57V44.9h5.78zM6.63 3.48H3.06V8c2.87 6.05 5.37 7.97 7.6 6.7.81-.46.95-.85.72-1.66-.24-.85-.47-1.25-2.17-3.96-1.48-2.33-2.3-3.96-2.58-5.6z"></path></svg></g></svg>